<?xml version="1.0" standalone="no"?>
<!DOCTYPE svg PUBLIC "-//W3C//DTD SVG 20010904//EN"
 "http://www.w3.org/TR/2001/REC-SVG-20010904/DTD/svg10.dtd">
<svg version="1.0" xmlns="http://www.w3.org/2000/svg"
 width="260.000000pt" height="260.000000pt" viewBox="0 0 260.000000 260.000000"
 preserveAspectRatio="xMidYMid meet">
<metadata>
Created by potrace 1.11, written by Peter Selinger 2001-2013
</metadata>
<g transform="translate(0.000000,260.000000) scale(0.100000,-0.100000)"
fill="#000000" stroke="none">
<path d="M1215 2586 c-136 -42 -223 -153 -234 -300 l-6 -68 -45 -18 -45 -17
-50 42 c-82 70 -134 89 -235 86 -91 -2 -147 -27 -216 -95 -70 -70 -97 -134
-96 -227 0 -84 25 -148 82 -213 l49 -56 -18 -40 c-24 -54 -25 -54 -84 -57
-112 -4 -200 -53 -261 -146 -42 -62 -56 -120 -50 -201 11 -160 135 -281 300
-293 l72 -6 20 -48 20 -47 -24 -23 c-38 -35 -83 -108 -95 -152 -16 -61 -14
-147 6 -207 25 -76 118 -170 193 -194 125 -42 241 -17 342 72 l44 40 46 -18
45 -18 7 -75 c12 -127 77 -224 188 -276 45 -21 69 -25 135 -25 67 0 89 5 138
29 107 53 175 158 180 276 l2 64 49 23 50 23 40 -39 c75 -71 133 -94 230 -94
108 1 204 52 264 142 39 59 54 109 54 180 0 81 -26 152 -82 219 l-47 57 17 44
18 45 75 7 c127 12 223 77 276 188 34 73 35 191 2 261 -54 115 -160 187 -281
192 l-65 3 -23 48 -24 49 40 41 c22 22 50 60 62 82 21 42 39 125 34 160 -2 11
-6 38 -9 61 -12 84 -103 188 -193 223 -126 48 -251 23 -348 -71 l-40 -39 -50
20 -49 21 -2 67 c-5 122 -77 229 -191 282 -55 26 -160 33 -217 16z m143 -219
c42 -20 52 -56 52 -189 l0 -123 73 -17 c77 -17 179 -61 237 -101 l35 -25 97
94 c91 88 100 94 138 94 34 0 48 -6 76 -34 28 -28 34 -42 34 -76 0 -40 -5 -48
-94 -139 l-93 -96 32 -51 c44 -67 80 -155 96 -232 l13 -62 123 0 c135 0 169
-9 192 -53 27 -50 16 -101 -29 -142 -19 -17 -39 -20 -154 -23 l-131 -4 -17
-70 c-19 -79 -67 -186 -103 -235 l-25 -32 81 -83 c103 -105 109 -114 109 -161
0 -31 -7 -46 -34 -73 -28 -28 -42 -34 -76 -34 -40 0 -48 5 -139 94 l-96 94
-64 -39 c-73 -44 -151 -76 -228 -92 l-53 -11 0 -124 c0 -139 -10 -170 -61
-195 -37 -18 -74 -14 -109 12 -42 31 -50 58 -50 186 l0 120 -57 14 c-81 18
-169 55 -232 97 l-53 36 -98 -96 c-92 -91 -99 -96 -140 -96 -34 0 -48 6 -76
34 -28 28 -34 42 -34 75 0 45 16 67 133 181 l58 57 -29 44 c-46 69 -81 149
-100 226 l-17 71 -131 4 c-115 3 -135 6 -154 23 -46 42 -56 90 -28 143 22 42
57 52 191 52 l123 0 13 63 c13 66 76 210 111 254 l20 26 -95 97 c-90 92 -95
99 -95 140 0 34 6 48 34 76 36 36 71 43 118 25 13 -5 63 -48 111 -95 l88 -86
32 24 c49 37 156 84 235 104 l70 17 4 130 c4 145 11 166 68 189 36 15 57 14
98 -7z"/>
<path d="M1194 1721 c-139 -35 -271 -168 -307 -306 -93 -362 273 -660 609
-495 81 40 174 137 205 217 19 48 23 77 24 168 0 103 -2 114 -32 178 -42 89
-121 168 -210 210 -60 27 -80 32 -163 34 -52 1 -109 -2 -126 -6z m180 -213
c24 -8 58 -30 82 -54 89 -92 84 -229 -11 -312 -49 -43 -78 -54 -146 -54 -121
0 -210 89 -211 210 -1 70 21 120 70 163 66 58 131 72 216 47z"/>
</g>
</svg>
